<svg version="1.1" id="Layer_1" xmlns="http://www.w3.org/2000/svg" xmlns:xlink="http://www.w3.org/1999/xlink" x="0px" y="0px"
	 width="100%" viewBox="0 0 200 200" enable-background="new 0 0 200 200" xml:space="preserve">
<path fill="#010101" opacity="1.000000" stroke="none" 
	d="
M1.000000,76.000000 
	C1.000000,50.666672 1.000000,25.833345 1.000000,1.000013 
	C67.666649,1.000009 134.333298,1.000009 200.999954,1.000004 
	C200.999969,67.666634 200.999969,134.333267 200.999985,200.999908 
	C134.333389,200.999939 67.666771,200.999939 1.000080,200.999969 
	C1.000000,159.500000 1.000000,118.000000 1.000000,76.000000 
M113.696259,160.828079 
	C114.718071,157.881927 115.739876,154.935760 117.111557,151.340332 
	C118.289925,147.886856 119.468292,144.433395 121.061394,140.109177 
	C121.254074,134.402740 121.446747,128.696304 121.866310,122.133644 
	C122.263092,116.756264 122.659874,111.378876 123.351418,105.229782 
	C123.723366,101.614830 124.131683,98.003181 124.460968,94.384346 
	C125.928177,78.259796 127.372810,62.133190 129.076706,45.289371 
	C131.143021,40.657398 133.209320,36.025425 135.275635,31.393450 
	C134.958282,31.144308 134.640930,30.895166 134.323578,30.646025 
	C130.553146,32.447613 126.782707,34.249199 122.294899,36.105789 
	C119.158485,37.645294 116.022079,39.184799 112.175583,40.932251 
	C106.457169,42.138550 104.739380,45.776390 105.031319,51.377216 
	C105.298111,56.495644 104.669594,61.661877 104.416138,66.806084 
	C103.591766,83.538521 102.758453,100.270531 101.624245,117.766136 
	C101.504425,120.507980 101.384605,123.249825 101.044197,126.880829 
	C100.877075,130.208832 100.709946,133.536835 100.092896,137.411118 
	C100.054878,138.590088 100.016861,139.769058 99.304047,141.082230 
	C99.076042,141.106918 98.848030,141.131607 98.689308,140.346451 
	C98.463676,138.231186 98.238052,136.115921 98.178001,133.153381 
	C98.067032,131.435043 97.956062,129.716705 97.984863,127.100471 
	C97.674858,123.395538 97.364861,119.690605 97.249985,115.067833 
	C96.764984,107.709221 96.279991,100.350609 95.967255,92.104897 
	C95.279251,78.070839 94.591248,64.036789 94.211647,49.416618 
	C94.814659,45.440750 93.098366,43.374519 89.351891,41.727585 
	C76.745049,36.185658 64.333626,30.199224 51.400776,23.846945 
	C47.946327,21.863081 44.491882,19.879217 40.666233,17.302561 
	C34.784019,13.842587 28.901806,10.382615 22.676146,6.380831 
	C21.659885,5.932839 20.643627,5.484848 18.879831,4.707326 
	C20.197847,7.183562 21.020422,8.728985 21.930538,10.991275 
	C24.084192,16.061104 26.237844,21.130932 28.588150,26.941990 
	C29.360933,29.304050 30.133717,31.666111 30.840273,34.757160 
	C31.333754,36.545681 31.827234,38.334202 32.274525,40.965351 
	C33.152103,44.319286 34.029678,47.673225 34.841339,51.842030 
	C35.918522,56.708687 36.878803,61.605099 38.107689,66.433144 
	C39.207504,70.754074 39.644291,75.658356 42.046638,79.156204 
	C49.552601,90.085007 57.850521,100.469887 65.985664,111.690323 
	C66.648781,112.523933 67.311890,113.357552 68.157524,114.840477 
	C70.573685,116.801041 72.357964,116.412453 72.100868,113.134506 
	C70.988571,98.952843 69.910255,84.759399 68.311058,70.627792 
	C66.917130,58.310112 64.841949,46.069523 63.642273,33.995895 
	C64.535347,35.053543 65.428421,36.111191 66.572037,37.882214 
	C67.779404,41.423386 69.615555,44.885056 70.075256,48.520763 
	C71.409851,59.075737 72.150696,69.704659 73.204643,80.296593 
	C74.057869,88.871216 75.027237,97.434273 75.804649,106.896095 
	C76.458679,112.628159 77.112717,118.360222 77.659714,124.960678 
	C78.044060,127.996208 78.428413,131.031738 78.751862,134.836075 
	C78.586853,136.553986 78.421844,138.271912 78.267799,140.709320 
	C79.292824,143.470856 80.317841,146.232391 81.417717,149.693130 
	C82.355797,152.125000 83.293877,154.556870 84.223984,157.692062 
	C85.119301,159.805847 86.014618,161.919632 86.919868,164.723816 
	C87.493675,166.193130 88.067474,167.662445 88.714973,169.819626 
	C89.124733,170.881027 89.534492,171.942429 89.952995,173.751511 
	C91.013809,176.497864 92.074623,179.244202 93.194099,182.728546 
	C95.413612,186.743439 94.607437,192.354767 100.677460,195.786591 
	C102.881317,189.916229 104.930679,184.457397 107.392448,178.408539 
	C108.683823,174.612946 109.975189,170.817352 111.727974,166.530197 
	C112.219719,164.806030 112.711464,163.081863 113.696259,160.828079 
M164.521606,52.898132 
	C164.706802,52.624538 164.736008,52.335205 164.853012,51.315125 
	C164.878464,50.813446 164.903931,50.311764 165.197906,49.698277 
	C165.340103,49.493042 165.304108,49.326283 165.460510,48.521809 
	C165.526855,48.013199 165.593201,47.504585 165.903656,46.522968 
	C165.879578,46.347183 165.855515,46.171394 166.140701,45.285320 
	C166.469574,43.522110 166.798447,41.758900 167.459213,39.451923 
	C167.598785,38.624092 167.738342,37.796261 168.250107,36.552773 
	C168.349472,36.018425 168.448837,35.484077 168.828873,34.193287 
	C170.291824,29.811737 171.754776,25.430189 173.759415,20.613314 
	C175.650574,15.901561 177.541718,11.189809 179.432877,6.478056 
	C178.946396,6.126406 178.459900,5.774756 177.973404,5.423106 
	C174.260056,7.755084 170.546692,10.087061 166.166885,12.699313 
	C163.070099,14.673417 159.973297,16.647522 156.200226,18.800240 
	C154.466080,19.940519 152.731918,21.080799 150.342865,22.261139 
	C148.548523,23.468021 146.754196,24.674902 144.262512,26.027739 
	C142.812439,27.671761 141.362381,29.315781 139.541245,31.611629 
	C139.057938,34.075310 138.574631,36.538986 137.913101,39.823452 
	C134.696167,64.474930 131.479233,89.126411 128.262314,113.777885 
	C129.097076,114.118324 129.931854,114.458763 130.766632,114.799202 
	C135.796204,108.183495 140.825775,101.567780 146.416916,94.573929 
	C148.488266,91.382927 150.559616,88.191933 153.080154,84.481056 
	C154.403656,82.696075 155.727158,80.911095 157.669617,78.729454 
	C159.801315,70.179871 161.933014,61.630283 164.073822,53.147179 
	C164.073822,53.147179 164.141281,53.142689 164.521606,52.898132 
z"/>
<path fill="#C8C8C8" opacity="1.000000" stroke="none" 
	d="
M65.841476,111.065598 
	C57.850521,100.469887 49.552601,90.085007 42.046638,79.156204 
	C39.644291,75.658356 39.207504,70.754074 38.107689,66.433144 
	C36.878803,61.605099 35.918522,56.708687 35.242714,51.415390 
	C36.800755,50.446625 38.268166,50.188423 39.064400,49.316975 
	C44.877792,42.954456 52.504795,40.839546 60.746796,40.151253 
	C61.436287,44.291775 62.133286,48.040188 62.549030,51.819538 
	C64.718369,71.540092 66.816216,91.268524 68.551620,110.997513 
	C67.390030,111.022415 66.615753,111.044006 65.841476,111.065598 
z"/>
<path fill="#C7C7C7" opacity="1.000000" stroke="none" 
	d="
M93.903236,50.002731 
	C94.591248,64.036789 95.279251,78.070839 95.530731,92.565216 
	C93.872147,93.980629 92.550713,94.833565 91.445419,95.908699 
	C86.934883,100.296204 83.231033,105.885658 75.945084,106.002464 
	C75.027237,97.434273 74.057869,88.871216 73.204643,80.296593 
	C72.150696,69.704659 71.409851,59.075737 70.075256,48.520763 
	C69.615555,44.885056 67.779404,41.423386 66.867630,37.453827 
	C69.870682,37.121544 73.016663,36.368793 75.192963,37.493076 
	C79.526665,39.731892 83.302948,43.037910 87.358101,45.832554 
	C89.486794,47.299553 91.718208,48.617485 93.903236,50.002731 
z"/>
<path fill="#BCBCBC" opacity="1.000000" stroke="none" 
	d="
M101.928581,117.002701 
	C102.758453,100.270531 103.591766,83.538521 104.416138,66.806084 
	C104.669594,61.661877 105.298111,56.495644 105.031319,51.377216 
	C104.739380,45.776390 106.457169,42.138550 112.695862,41.145592 
	C114.796242,43.880741 116.783775,46.236198 117.892105,48.950638 
	C126.874825,70.950455 123.880615,91.524239 109.809830,110.464607 
	C107.832291,113.126518 104.587029,114.846642 101.928581,117.002701 
z"/>
<path fill="#ACACAC" opacity="1.000000" stroke="none" 
	d="
M145.855347,94.952072 
	C140.825775,101.567780 135.796204,108.183495 130.766632,114.799202 
	C129.931854,114.458763 129.097076,114.118324 128.262314,113.777885 
	C131.479233,89.126411 134.696167,64.474930 138.344299,39.485428 
	C139.780258,40.378815 141.203629,41.455536 141.724670,42.865673 
	C146.685669,56.291935 148.272339,70.094772 146.232559,84.324905 
	C145.732468,87.813637 145.961517,91.406876 145.855347,94.952072 
z"/>
<path fill="#B7B7B7" opacity="1.000000" stroke="none" 
	d="
M101.776413,117.384422 
	C104.587029,114.846642 107.832291,113.126518 109.809830,110.464607 
	C123.880615,91.524239 126.874825,70.950455 117.892105,48.950638 
	C116.783775,46.236198 114.796242,43.880741 113.050903,41.041618 
	C116.022079,39.184799 119.158485,37.645294 122.663910,36.446117 
	C124.963814,39.860073 126.894714,42.933697 128.825592,46.007324 
	C127.372810,62.133190 125.928177,78.259796 124.460968,94.384346 
	C124.131683,98.003181 123.723366,101.614830 122.860504,105.676094 
	C120.311226,108.638611 118.375015,111.268097 116.168739,113.647125 
	C111.752892,118.408791 108.478821,124.596054 101.264786,125.991669 
	C101.384605,123.249825 101.504425,120.507980 101.776413,117.384422 
z"/>
<path fill="#ACACAC" opacity="1.000000" stroke="none" 
	d="
M84.231949,156.988739 
	C83.293877,154.556870 82.355797,152.125000 81.769913,149.341156 
	C87.371613,147.316025 92.621117,145.642868 97.902069,144.370300 
	C98.091904,146.234238 98.250275,147.697571 98.408653,149.160904 
	C98.932053,149.120285 99.455452,149.079651 99.978851,149.039032 
	C99.978851,146.342026 99.978851,143.645035 99.978851,140.948029 
	C100.016861,139.769058 100.054878,138.590088 100.712715,137.153931 
	C105.397125,134.255997 109.502953,131.675980 113.512138,128.953644 
	C116.290199,127.067284 118.935051,124.984756 121.639420,122.989876 
	C121.446747,128.696304 121.254074,134.402740 120.494621,140.548096 
	C118.333588,141.732773 116.524017,142.206070 115.179787,143.268265 
	C106.024681,150.502533 95.186134,153.860001 84.231949,156.988739 
z"/>
<path fill="#C1C1C1" opacity="1.000000" stroke="none" 
	d="
M75.874863,106.449280 
	C83.231033,105.885658 86.934883,100.296204 91.445419,95.908699 
	C92.550713,94.833565 93.872147,93.980629 95.444595,93.008766 
	C96.279991,100.350609 96.764984,107.709221 96.780403,115.544815 
	C90.129463,118.711952 83.948105,121.402115 77.766754,124.092285 
	C77.112717,118.360222 76.458679,112.628159 75.874863,106.449280 
z"/>
<path fill="#A2A2A2" opacity="1.000000" stroke="none" 
	d="
M144.959854,25.881784 
	C146.754196,24.674902 148.548523,23.468021 150.739197,22.581774 
	C154.410309,31.856703 157.617691,40.836880 161.033859,49.736904 
	C161.536484,51.046368 163.029785,51.975563 164.064728,53.080700 
	C161.933014,61.630283 159.801315,70.179871 157.275650,78.509483 
	C156.587997,75.329430 156.398376,72.354568 155.980804,69.412064 
	C154.796356,61.065643 154.076599,52.597240 152.099060,44.437347 
	C150.551254,38.050549 147.399155,32.052536 144.959854,25.881784 
z"/>
<path fill="#C1C1C1" opacity="1.000000" stroke="none" 
	d="
M94.057442,49.709675 
	C91.718208,48.617485 89.486794,47.299553 87.358101,45.832554 
	C83.302948,43.037910 79.526665,39.731892 75.192963,37.493076 
	C73.016663,36.368793 69.870682,37.121544 66.742355,37.097137 
	C65.428421,36.111191 64.535347,35.053543 63.370884,33.557774 
	C62.289436,31.433216 61.834244,29.068197 58.682323,31.027027 
	C55.817348,31.401922 53.226868,31.378645 50.979855,32.245590 
	C44.684242,34.674580 38.530453,37.471165 32.320713,40.122723 
	C31.827234,38.334202 31.333754,36.545681 31.226879,34.328049 
	C38.358135,30.726906 45.102787,27.554878 51.847439,24.382851 
	C64.333626,30.199224 76.745049,36.185658 89.351891,41.727585 
	C93.098366,43.374519 94.814659,45.440750 94.057442,49.709675 
z"/>
<path fill="#A9A9A9" opacity="1.000000" stroke="none" 
	d="
M146.136139,94.763000 
	C145.961517,91.406876 145.732468,87.813637 146.232559,84.324905 
	C148.272339,70.094772 146.685669,56.291935 141.724670,42.865673 
	C141.203629,41.455536 139.780258,40.378815 138.433426,39.075035 
	C138.574631,36.538986 139.057938,34.075310 140.029236,31.456066 
	C142.751144,35.602646 145.634674,39.697079 147.089798,44.248219 
	C150.610306,55.259239 152.710388,66.537628 151.176422,78.260254 
	C150.895508,80.406952 152.107880,82.749046 152.630951,85.000938 
	C150.559616,88.191933 148.488266,91.382927 146.136139,94.763000 
z"/>
<path fill="#A7A7A7" opacity="1.000000" stroke="none" 
	d="
M152.855560,84.740997 
	C152.107880,82.749046 150.895508,80.406952 151.176422,78.260254 
	C152.710388,66.537628 150.610306,55.259239 147.089798,44.248219 
	C145.634674,39.697079 142.751144,35.602646 140.214783,31.130154 
	C141.362381,29.315781 142.812439,27.671761 144.611176,25.954762 
	C147.399155,32.052536 150.551254,38.050549 152.099060,44.437347 
	C154.076599,52.597240 154.796356,61.065643 155.980804,69.412064 
	C156.398376,72.354568 156.587997,75.329430 156.966187,78.707809 
	C155.727158,80.911095 154.403656,82.696075 152.855560,84.740997 
z"/>
<path fill="#C4C4C4" opacity="1.000000" stroke="none" 
	d="
M32.297619,40.544037 
	C38.530453,37.471165 44.684242,34.674580 50.979855,32.245590 
	C53.226868,31.378645 55.817348,31.401922 58.722195,31.420902 
	C59.670406,34.473103 60.147476,37.123260 60.624546,39.773415 
	C52.504795,40.839546 44.877792,42.954456 39.064400,49.316975 
	C38.268166,50.188423 36.800755,50.446625 35.275673,51.007957 
	C34.029678,47.673225 33.152103,44.319286 32.297619,40.544037 
z"/>
<path fill="#171819" opacity="1.000000" stroke="none" 
	d="
M60.746796,40.151253 
	C60.147476,37.123260 59.670406,34.473103 59.153465,31.429073 
	C61.834244,29.068197 62.289436,31.433216 63.083641,33.457260 
	C64.841949,46.069523 66.917130,58.310112 68.311058,70.627792 
	C69.910255,84.759399 70.988571,98.952843 72.100868,113.134506 
	C72.357964,116.412453 70.573685,116.801041 68.395844,114.351257 
	C68.735756,112.906097 68.837341,111.950150 68.938934,110.994209 
	C66.816216,91.268524 64.718369,71.540092 62.549030,51.819538 
	C62.133286,48.040188 61.436287,44.291775 60.746796,40.151253 
z"/>
<path fill="#A7A7A7" opacity="1.000000" stroke="none" 
	d="
M84.227966,157.340393 
	C95.186134,153.860001 106.024681,150.502533 115.179787,143.268265 
	C116.524017,142.206070 118.333588,141.732773 120.287254,140.983459 
	C119.468292,144.433395 118.289925,147.886856 116.566437,151.668503 
	C110.688110,154.328949 105.354912,156.661240 99.989914,158.783890 
	C99.802216,158.367859 99.646317,158.161484 99.490417,157.955093 
	C99.324898,158.306046 99.159378,158.656982 98.807816,159.302887 
	C94.717827,161.076355 90.813881,162.554886 86.909943,164.033417 
	C86.014618,161.919632 85.119301,159.805847 84.227966,157.340393 
z"/>
<path fill="#B3B3B3" opacity="1.000000" stroke="none" 
	d="
M121.752869,122.561760 
	C118.935051,124.984756 116.290199,127.067284 113.512138,128.953644 
	C109.502953,131.675980 105.397125,134.255997 100.937683,136.880798 
	C100.709946,133.536835 100.877075,130.208832 101.154495,126.436249 
	C108.478821,124.596054 111.752892,118.408791 116.168739,113.647125 
	C118.375015,111.268097 120.311226,108.638611 122.713120,106.061951 
	C122.659874,111.378876 122.263092,116.756264 121.752869,122.561760 
z"/>
<path fill="#999999" opacity="1.000000" stroke="none" 
	d="
M156.876495,18.621622 
	C159.973297,16.647522 163.070099,14.673417 166.637390,12.922592 
	C169.144516,15.780128 171.181137,18.414385 173.217743,21.048639 
	C171.754776,25.430189 170.291824,29.811737 168.456436,34.635338 
	C168.015305,35.707733 167.946609,36.338081 167.877914,36.968430 
	C167.738342,37.796261 167.598785,38.624092 166.931000,39.662575 
	C165.617889,39.107166 164.476761,38.483116 164.105652,37.552120 
	C161.604721,31.278316 159.267044,24.939428 156.876495,18.621622 
z"/>
<path fill="#B8B9B9" opacity="1.000000" stroke="none" 
	d="
M77.713234,124.526474 
	C83.948105,121.402115 90.129463,118.711952 96.682846,116.003731 
	C97.364861,119.690605 97.674858,123.395538 97.532791,127.553329 
	C95.052490,128.671402 93.022034,129.329926 90.996490,130.003220 
	C86.933830,131.353638 82.873856,132.712128 78.812767,134.067291 
	C78.428413,131.031738 78.044060,127.996208 77.713234,124.526474 
z"/>
<path fill="#9E9F9F" opacity="1.000000" stroke="none" 
	d="
M156.538361,18.710930 
	C159.267044,24.939428 161.604721,31.278316 164.105652,37.552120 
	C164.476761,38.483116 165.617889,39.107166 166.765045,39.934456 
	C166.798447,41.758900 166.469574,43.522110 165.860413,45.729626 
	C165.390976,46.468815 165.417450,46.742828 165.659546,46.995975 
	C165.593201,47.504585 165.526855,48.013199 165.198761,48.944344 
	C164.936996,49.366879 164.929398,49.810085 164.929398,49.810085 
	C164.903931,50.311764 164.878464,50.813446 164.571167,51.815639 
	C164.116516,52.569523 164.067169,52.845036 164.141281,53.142689 
	C164.141281,53.142689 164.073822,53.147179 164.069275,53.113937 
	C163.029785,51.975563 161.536484,51.046368 161.033859,49.736904 
	C157.617691,40.836880 154.410309,31.856703 151.066650,22.561743 
	C152.731918,21.080799 154.466080,19.940519 156.538361,18.710930 
z"/>
<path fill="#999999" opacity="1.000000" stroke="none" 
	d="
M111.266563,167.021759 
	C109.975189,170.817352 108.683823,174.612946 106.803619,178.721130 
	C101.855011,180.019348 97.495224,181.004959 93.135437,181.990555 
	C92.074623,179.244202 91.013809,176.497864 90.374855,173.377182 
	C94.388573,172.072769 98.004311,171.224747 101.565269,170.188477 
	C104.829758,169.238495 108.035141,168.085388 111.266563,167.021759 
z"/>
<path fill="#B0B0B0" opacity="1.000000" stroke="none" 
	d="
M97.870621,143.969711 
	C92.621117,145.642868 87.371613,147.316025 81.732483,148.991547 
	C80.317841,146.232391 79.292824,143.470856 78.668823,140.347733 
	C85.384033,137.990982 91.698227,135.995819 98.012421,134.000656 
	C98.238052,136.115921 98.463676,138.231186 98.472961,140.986832 
	C98.127953,142.408051 97.999290,143.188873 97.870621,143.969711 
z"/>
<path fill="#B8B9B9" opacity="1.000000" stroke="none" 
	d="
M23.019592,6.922642 
	C28.901806,10.382615 34.784019,13.842587 40.782600,17.953634 
	C36.729809,21.136724 32.560654,23.668741 28.391497,26.200760 
	C26.237844,21.130932 24.084192,16.061104 22.047855,10.313164 
	C22.449978,8.730915 22.734785,7.826779 23.019592,6.922642 
z"/>
<path fill="#A2A2A2" opacity="1.000000" stroke="none" 
	d="
M100.021713,158.993530 
	C105.354912,156.661240 110.688110,154.328949 116.391495,151.993134 
	C115.739876,154.935760 114.718071,157.881927 113.226974,160.843903 
	C110.934410,161.358078 109.071884,161.745605 107.294945,162.374832 
	C101.061134,164.582184 94.856804,166.872772 88.641281,169.131760 
	C88.067474,167.662445 87.493675,166.193130 86.914902,164.378601 
	C90.813881,162.554886 94.717827,161.076355 99.064827,159.300034 
	C99.679161,158.999329 99.850441,158.996429 100.021713,158.993530 
z"/>
<path fill="#BFBFBF" opacity="1.000000" stroke="none" 
	d="
M28.489822,26.571375 
	C32.560654,23.668741 36.729809,21.136724 40.968201,18.250031 
	C44.491882,19.879217 47.946327,21.863081 51.624107,24.114899 
	C45.102787,27.554878 38.358135,30.726906 31.259991,33.963554 
	C30.133717,31.666111 29.360933,29.304050 28.489822,26.571375 
z"/>
<path fill="#B7B7B7" opacity="1.000000" stroke="none" 
	d="
M98.095215,133.577026 
	C91.698227,135.995819 85.384033,137.990982 78.663338,139.987976 
	C78.421844,138.271912 78.586853,136.553986 78.782318,134.451691 
	C82.873856,132.712128 86.933830,131.353638 90.996490,130.003220 
	C93.022034,129.329926 95.052490,128.671402 97.462906,128.002289 
	C97.956062,129.716705 98.067032,131.435043 98.095215,133.577026 
z"/>
<path fill="#929292" opacity="1.000000" stroke="none" 
	d="
M93.164764,182.359558 
	C97.495224,181.004959 101.855011,180.019348 106.597412,179.016144 
	C104.930679,184.457397 102.881317,189.916229 100.677460,195.786591 
	C94.607437,192.354767 95.413612,186.743439 93.164764,182.359558 
z"/>
<path fill="#9E9F9F" opacity="1.000000" stroke="none" 
	d="
M88.678131,169.475693 
	C94.856804,166.872772 101.061134,164.582184 107.294945,162.374832 
	C109.071884,161.745605 110.934410,161.358078 112.980453,161.108704 
	C112.711464,163.081863 112.219719,164.806030 111.497269,166.775970 
	C108.035141,168.085388 104.829758,169.238495 101.565269,170.188477 
	C98.004311,171.224747 94.388573,172.072769 90.370483,173.003342 
	C89.534492,171.942429 89.124733,170.881027 88.678131,169.475693 
z"/>
<path fill="#888989" opacity="1.000000" stroke="none" 
	d="
M173.488586,20.830976 
	C171.181137,18.414385 169.144516,15.780128 166.970612,12.782455 
	C170.546692,10.087061 174.260056,7.755084 177.973404,5.423106 
	C178.459900,5.774756 178.946396,6.126406 179.432877,6.478056 
	C177.541718,11.189809 175.650574,15.901561 173.488586,20.830976 
z"/>
<path fill="#B0B0B0" opacity="1.000000" stroke="none" 
	d="
M128.951157,45.648346 
	C126.894714,42.933697 124.963814,39.860073 123.022598,36.418617 
	C126.782707,34.249199 130.553146,32.447613 134.323578,30.646025 
	C134.640930,30.895166 134.958282,31.144308 135.275635,31.393450 
	C133.209320,36.025425 131.143021,40.657398 128.951157,45.648346 
z"/>
<path fill="#A2A2A2" opacity="1.000000" stroke="none" 
	d="
M97.902077,144.370300 
	C97.999290,143.188873 98.127953,142.408051 98.438324,141.391754 
	C98.848030,141.131607 99.076042,141.106918 99.641449,141.015137 
	C99.978851,143.645035 99.978851,146.342026 99.978851,149.039032 
	C99.455452,149.079651 98.932053,149.120285 98.408653,149.160904 
	C98.250275,147.697571 98.091904,146.234238 97.902077,144.370300 
z"/>
<path fill="#A9A9A9" opacity="1.000000" stroke="none" 
	d="
M22.847870,6.651736 
	C22.734785,7.826779 22.449978,8.730915 22.004086,9.954729 
	C21.020422,8.728985 20.197847,7.183562 18.879831,4.707326 
	C20.643627,5.484848 21.659885,5.932839 22.847870,6.651736 
z"/>
<path fill="#BCBCBC" opacity="1.000000" stroke="none" 
	d="
M68.551620,110.997513 
	C68.837341,111.950150 68.735756,112.906097 68.304581,114.026596 
	C67.311890,113.357552 66.648781,112.523933 65.913574,111.377960 
	C66.615753,111.044006 67.390030,111.022415 68.551620,110.997513 
z"/>
<path fill="#888989" opacity="1.000000" stroke="none" 
	d="
M168.064011,36.760601 
	C167.946609,36.338081 168.015305,35.707733 168.316101,35.013557 
	C168.448837,35.484077 168.349472,36.018425 168.064011,36.760601 
z"/>
<path fill="#888989" opacity="1.000000" stroke="none" 
	d="
M164.331451,53.020409 
	C164.067169,52.845036 164.116516,52.569523 164.449265,52.173141 
	C164.736008,52.335205 164.706802,52.624538 164.331451,53.020409 
z"/>
<path fill="#888989" opacity="1.000000" stroke="none" 
	d="
M165.063660,49.754181 
	C164.929398,49.810085 164.936996,49.366879 165.013458,49.282436 
	C165.304108,49.326283 165.340103,49.493042 165.063660,49.754181 
z"/>
<path fill="#888989" opacity="1.000000" stroke="none" 
	d="
M165.781601,46.759472 
	C165.417450,46.742828 165.390976,46.468815 165.705780,46.084770 
	C165.855515,46.171394 165.879578,46.347183 165.781601,46.759472 
z"/>
<path fill="#9E9F9F" opacity="1.000000" stroke="none" 
	d="
M99.989914,158.783890 
	C99.850441,158.996429 99.679161,158.999329 99.250870,159.005096 
	C99.159378,158.656982 99.324898,158.306046 99.490417,157.955093 
	C99.646317,158.161484 99.802216,158.367859 99.989914,158.783890 
z"/>
</svg>